<svg width="72" height="36" viewBox="0 0 72 36" fill="none" xmlns="http://www.w3.org/2000/svg">
<g clip-path="url(#clip0_2_2524)">
<path d="M22.6796 10.6828L22.5321 11.7187H20.1945C19.632 18.3164 19.2135 23.6896 18.7401 26.1746C17.8826 30.6715 13.7117 33.1857 10.9899 33.1857C10.0724 33.1857 8.85986 32.6832 8.85986 31.5873C8.85986 30.9664 9.39324 30.4931 10.0141 30.4931C10.9899 30.4931 11.7291 31.1722 12.2333 31.9715C13.7117 31.1431 13.9192 30.4622 14.5109 27.5055C14.7767 26.1747 15.6394 16.5105 16.0836 11.7187H14.2485L14.396 10.6828H16.2293L16.4952 9.05694C17.5002 2.93428 22.0261 2.25342 23.6228 2.25342C24.4804 2.25342 26.1662 2.66845 26.1662 3.76093C26.1662 4.52926 25.5454 4.85683 24.8354 4.85683C23.7412 4.85683 23.2387 4.17597 22.707 3.28758C20.8136 4.11594 20.4878 8.6419 20.3111 10.6828H22.6796Z" fill="url(#paint0_linear_2_2524)"/>
<path d="M28.8468 31.2597C25.788 33.7723 21.9508 35.1431 17.9924 35.1374C8.52884 35.1374 0.857515 27.4643 0.857515 18.0025C0.857515 8.53727 8.53055 0.864229 17.9941 0.864229C21.0109 0.863564 23.9744 1.6599 26.5846 3.17265C29.1948 4.68539 31.359 6.86084 32.8582 9.47882C33.251 9.56629 33.6352 9.67262 34.009 9.80125C32.5001 6.85244 30.2064 4.37752 27.3805 2.64927C24.5547 0.921023 21.3065 0.00657172 17.9941 0.00671388C8.05549 0.00671388 0 8.06221 0 18.0008C0 27.9377 8.05549 35.9932 17.9941 35.9932C22.683 35.9932 26.9534 34.1975 30.1554 31.258L28.8468 31.2597Z" fill="#634313"/>
<path d="M36.1254 14.7337C36.1254 11.5694 34.2028 10.1185 30.9477 10.1185C25.6534 10.1185 22.4583 14.3495 22.4583 19.2288C22.4583 21.3691 23.3398 22.7223 24.9177 23.3757H30.5087C34.0622 22.1512 36.1254 18.6542 36.1254 14.7337ZM26.7493 18.4621C26.7493 16.5396 27.1335 11.2453 29.8844 11.2453C31.7469 11.2453 31.8361 14.262 31.8361 15.5329C31.8361 17.4263 31.4519 22.7206 28.701 22.7206C26.8368 22.7206 26.7493 19.7038 26.7493 18.4621ZM50.9141 14.7337C50.9141 11.5694 48.9915 10.1185 45.7364 10.1185C40.4421 10.1185 37.247 14.3495 37.247 19.2288C37.247 21.3691 38.1302 22.7223 39.7064 23.3757H45.2974C48.8526 22.1512 50.9141 18.6542 50.9141 14.7337ZM41.538 18.4621C41.538 16.5396 41.9222 11.2453 44.6731 11.2453C46.5356 11.2453 46.6248 14.262 46.6248 15.5329C46.6248 17.4263 46.2406 22.7206 43.4897 22.7206C41.6255 22.7206 41.538 19.7038 41.538 18.4621ZM60.6743 18.8463L60.7343 18.9063C60.5868 20.5631 60.5268 21.4206 60.5268 22.0414C60.5268 22.3638 60.5182 22.9607 60.688 23.3791H63.9877C65.0216 23.0707 66.0301 22.6831 67.0045 22.2198L66.7387 21.3914C65.8211 21.7173 65.142 21.9539 64.9344 21.9539C64.5503 21.9539 64.5503 21.4514 64.5503 21.0656C64.5503 19.6455 66.5912 5.59428 66.5912 2.87425C66.5912 2.43005 66.502 2.43005 66.2361 2.43005C64.1953 2.49008 61.916 2.96343 59.8168 3.70261L60.0826 4.56012C61.1185 4.23598 61.5318 4.1468 61.7977 4.1468C62.1527 4.1468 62.1527 4.44178 62.1527 4.76764C62.1527 5.74349 62.1235 7.10351 61.7085 10.3278H60.6434C55.5258 10.3278 51.8573 15.1504 51.8573 19.7947C51.8573 21.117 52.3221 22.6331 53.3769 23.3791H56.7212C58.4928 22.4805 59.87 20.4533 60.6743 18.8463ZM61.0876 11.4511C61.2351 11.4511 61.4135 11.482 61.561 11.5403C61.1751 14.2912 60.9401 15.9771 60.2301 17.8104C59.8459 18.8172 58.6917 21.0347 57.39 21.0347C56.4433 21.0347 56.2958 19.4672 56.2958 18.8172C56.2958 16.1846 57.8342 11.4511 61.0876 11.4511Z" fill="url(#paint1_linear_2_2524)"/>
<path d="M63.9878 23.3774H20.2888V30.4245H67.3784V23.3774H63.9878Z" fill="#634313"/>
<path d="M23.1254 24.9982H24.2419L25.7357 27.226H25.746V24.9982H26.6687V29.1966H25.7683L24.0567 26.8196H24.0464V29.1966H23.1237V24.9982H23.1254ZM29.3887 24.9982H32.5478V25.8643H30.5875V26.6258H31.8429V27.4918H30.5875V28.2979H32.6095V29.1966H29.3887V24.9982ZM36.0139 25.8317H34.8597V24.9982H38.3686V25.8317H37.2144V29.1966H36.0139V25.8317ZM40.4918 24.9982H41.6803L42.2583 27.2432H42.2686L42.8637 24.9982H43.8636L44.4364 27.2432H44.4467L45.0349 24.9982H45.9782L44.8617 29.1966H43.8361L43.2427 26.9585H43.2307L42.6373 29.1966H41.61L40.4918 24.9982ZM50.1714 29.2738C48.9212 29.2738 48.1666 28.4368 48.1666 27.0974C48.1666 25.758 48.9212 24.921 50.1714 24.921C51.4217 24.921 52.1763 25.758 52.1763 27.0974C52.1763 28.4368 51.42 29.2738 50.1714 29.2738ZM49.4323 27.0974C49.4323 28.2259 49.7598 28.442 50.1714 28.442C50.5762 28.442 50.9106 28.2259 50.9106 27.0974C50.9106 26.0306 50.6379 25.7528 50.1714 25.7528C49.6878 25.7545 49.4323 26.0821 49.4323 27.0974ZM54.6957 24.9982H56.7057C58.1052 24.9982 58.3779 25.6653 58.3779 26.209C58.3779 26.7321 58.0503 27.0802 57.5838 27.2637L58.3676 29.1966H57.035L56.4399 27.4747H55.8962V29.1966H54.6974L54.6957 24.9982ZM55.8945 26.6755H56.5171C56.8618 26.6755 57.1122 26.5263 57.1122 26.2536C57.1122 25.9861 56.939 25.7991 56.5685 25.7991H55.8962L55.8945 26.6755ZM61.0139 24.9982H62.2127V26.6806H62.223L63.4509 24.9982H64.5948L63.5624 26.3874L64.8675 29.1983H63.5847L62.758 27.4044L62.2144 28.1316V29.1983H61.0156L61.0139 24.9982Z" fill="white"/>
<path d="M69.6045 28.5688V28.7901H68.9802V30.4142H68.7298V28.7901H68.1055V28.5688H69.6045ZM70.1859 28.5688L70.7141 30.1295H70.7192L71.244 28.5688H71.599V30.4142H71.3572V29.2343L71.3624 28.8673L71.3572 28.8638L70.8376 30.4142H70.5906L70.071 28.8673L70.0658 28.8638L70.071 29.3166V30.4159H69.8291V28.5706H70.1859V28.5688Z" fill="#634313"/>
</g>
<defs>
<linearGradient id="paint0_linear_2_2524" x1="17.513" y1="2.25342" x2="17.513" y2="33.1857" gradientUnits="userSpaceOnUse">
<stop stop-color="#FFA800"/>
<stop offset="1" stop-color="#EE5601"/>
</linearGradient>
<linearGradient id="paint1_linear_2_2524" x1="44.7314" y1="2.43005" x2="44.7314" y2="23.3791" gradientUnits="userSpaceOnUse">
<stop stop-color="#FFA800"/>
<stop offset="1" stop-color="#FE7008"/>
</linearGradient>
<clipPath id="clip0_2_2524">
<rect width="71.599" height="36" fill="white"/>
</clipPath>
</defs>
</svg>
