<svg width="127" height="37" viewBox="0 0 127 37" fill="none" xmlns="http://www.w3.org/2000/svg">
<rect x="0.763184" width="126" height="37" rx="7" fill="#E65527" fill-opacity="0.1"/>
<path d="M45.2674 24V13.8182H51.7902V15.3643H47.1119V18.1286H51.3427V19.6747H47.1119V24H45.2674ZM53.2816 24V16.3636H55.0267V17.6364H55.1062C55.2454 17.1955 55.4841 16.8558 55.8221 16.6172C56.1635 16.3752 56.553 16.2543 56.9905 16.2543C57.0899 16.2543 57.2009 16.2592 57.3236 16.2692C57.4495 16.2758 57.5539 16.2874 57.6368 16.304V17.9595C57.5605 17.933 57.4396 17.9098 57.2738 17.8899C57.1114 17.8667 56.954 17.8551 56.8015 17.8551C56.4734 17.8551 56.1784 17.9264 55.9166 18.0689C55.6581 18.2081 55.4542 18.402 55.3051 18.6506C55.1559 18.8991 55.0814 19.1858 55.0814 19.5107V24H53.2816ZM63.6996 20.7884V16.3636H65.4993V24H63.7543V22.6428H63.6748C63.5024 23.0703 63.219 23.42 62.8246 23.6918C62.4335 23.9635 61.9513 24.0994 61.3779 24.0994C60.8774 24.0994 60.4349 23.9884 60.0505 23.7663C59.6693 23.541 59.371 23.2145 59.1556 22.7869C58.9401 22.3561 58.8324 21.8357 58.8324 21.2259V16.3636H60.6321V20.9474C60.6321 21.4313 60.7647 21.8158 61.0299 22.1009C61.295 22.3859 61.643 22.5284 62.0739 22.5284C62.3391 22.5284 62.5959 22.4638 62.8445 22.3345C63.0931 22.2053 63.2969 22.013 63.456 21.7578C63.6184 21.4993 63.6996 21.1761 63.6996 20.7884ZM67.35 24V16.3636H69.1497V24H67.35ZM68.2548 15.2798C67.9698 15.2798 67.7245 15.1854 67.519 14.9964C67.3136 14.8042 67.2108 14.5739 67.2108 14.3054C67.2108 14.0336 67.3136 13.8033 67.519 13.6143C67.7245 13.4221 67.9698 13.326 68.2548 13.326C68.5432 13.326 68.7885 13.4221 68.9906 13.6143C69.1961 13.8033 69.2989 14.0336 69.2989 14.3054C69.2989 14.5739 69.1961 14.8042 68.9906 14.9964C68.7885 15.1854 68.5432 15.2798 68.2548 15.2798ZM74.8136 16.3636V17.7557H70.4237V16.3636H74.8136ZM71.5075 14.5341H73.3072V21.7031C73.3072 21.9451 73.3437 22.1307 73.4166 22.2599C73.4928 22.3859 73.5923 22.4721 73.7149 22.5185C73.8375 22.5649 73.9734 22.5881 74.1226 22.5881C74.2352 22.5881 74.338 22.5798 74.4308 22.5632C74.5269 22.5466 74.5998 22.5317 74.6495 22.5185L74.9528 23.9254C74.8567 23.9586 74.7191 23.995 74.5402 24.0348C74.3645 24.0746 74.1491 24.0978 73.8939 24.1044C73.4431 24.1177 73.0371 24.0497 72.6758 23.9006C72.3146 23.7481 72.0279 23.5128 71.8157 23.1946C71.6069 22.8764 71.5042 22.4787 71.5075 22.0014V14.5341ZM82.2449 18.3821L80.6043 18.5611C80.5579 18.3954 80.4767 18.2396 80.3607 18.0938C80.248 17.9479 80.0955 17.8303 79.9033 17.7408C79.711 17.6513 79.4757 17.6065 79.1973 17.6065C78.8228 17.6065 78.5079 17.6877 78.2527 17.8501C78.0008 18.0125 77.8765 18.223 77.8798 18.4815C77.8765 18.7036 77.9577 18.8842 78.1234 19.0234C78.2925 19.1626 78.5709 19.277 78.9587 19.3665L80.2612 19.6449C80.9838 19.8007 81.5207 20.0476 81.872 20.3857C82.2267 20.7237 82.4056 21.1662 82.409 21.7131C82.4056 22.1937 82.2648 22.6179 81.9864 22.9858C81.7113 23.3504 81.3285 23.6354 80.8379 23.8409C80.3474 24.0464 79.784 24.1491 79.1476 24.1491C78.2129 24.1491 77.4606 23.9536 76.8905 23.5625C76.3204 23.1681 75.9807 22.6196 75.8713 21.9169L77.6263 21.7479C77.7058 22.0926 77.8749 22.3527 78.1334 22.5284C78.3919 22.7041 78.7283 22.7919 79.1426 22.7919C79.5702 22.7919 79.9132 22.7041 80.1717 22.5284C80.4336 22.3527 80.5645 22.1357 80.5645 21.8771C80.5645 21.6584 80.48 21.4777 80.3109 21.3352C80.1452 21.1927 79.8867 21.0833 79.5354 21.0071L78.2328 20.7337C77.5003 20.5812 76.9584 20.3243 76.6071 19.9631C76.2558 19.5985 76.0818 19.1378 76.0851 18.581C76.0818 18.1103 76.2094 17.7027 76.4679 17.358C76.7297 17.0099 77.0927 16.7415 77.5567 16.5526C78.024 16.3603 78.5626 16.2642 79.1725 16.2642C80.0673 16.2642 80.7716 16.4548 81.2854 16.8359C81.8024 17.2171 82.1223 17.7325 82.2449 18.3821Z" fill="#E65527"/>
</svg>
