<svg width="24" height="18" viewBox="0 0 24 18" fill="none" xmlns="http://www.w3.org/2000/svg">
<path d="M19.9672 16.1504L15.9685 12.2017M17.6649 8.01364C17.6649 8.78361 17.5113 9.54605 17.2129 10.2574C16.9145 10.9688 16.4772 11.6151 15.9258 12.1596C15.3745 12.704 14.7199 13.1359 13.9996 13.4306C13.2792 13.7252 12.5071 13.8769 11.7274 13.8769C10.9476 13.8769 10.1755 13.7252 9.45515 13.4306C8.73477 13.1359 8.08022 12.704 7.52886 12.1596C6.97751 11.6151 6.54015 10.9688 6.24176 10.2574C5.94337 9.54605 5.78979 8.78361 5.78979 8.01364C5.78979 6.45861 6.41536 4.96727 7.52886 3.8677C8.64237 2.76812 10.1526 2.15039 11.7274 2.15039C13.3021 2.15039 14.8123 2.76812 15.9258 3.8677C17.0393 4.96727 17.6649 6.45861 17.6649 8.01364Z" stroke="#E65527" stroke-width="1.5" stroke-linecap="round" stroke-linejoin="round"/>
</svg>
