<svg width="34" height="34" viewBox="0 0 34 34" fill="none" xmlns="http://www.w3.org/2000/svg">
<rect width="34" height="34" rx="6" fill="#101010" fill-opacity="0.05"/>
<path d="M24.6404 9.35834C24.394 9.10894 24.0874 8.92731 23.7503 8.831C23.4132 8.73468 23.057 8.72694 22.716 8.80851L11.7195 11.1247C11.0862 11.2115 10.4897 11.4734 9.99727 11.881C9.50481 12.2885 9.13591 12.8254 8.9321 13.4312C8.7283 14.0371 8.69769 14.6878 8.84372 15.3101C8.98975 15.9324 9.30662 16.5016 9.75865 16.9535L10.9394 18.1336C11.0033 18.1975 11.054 18.2733 11.0885 18.3568C11.1231 18.4403 11.1408 18.5298 11.1408 18.6202V20.7975C11.1423 21.1036 11.2128 21.4055 11.347 21.6806L11.3415 21.6855L11.3593 21.7033C11.5607 22.1082 11.8896 22.4357 12.2954 22.6353L12.3133 22.6531L12.3181 22.6476C12.5933 22.7818 12.8951 22.8523 13.2013 22.8538H15.3786C15.5607 22.8537 15.7355 22.9259 15.8645 23.0545L17.0445 24.2346C17.361 24.5546 17.7378 24.8088 18.153 24.9826C18.5682 25.1563 19.0137 25.2462 19.4638 25.247C19.8389 25.2465 20.2114 25.1852 20.5669 25.0655C21.1672 24.8684 21.7004 24.5074 22.1065 24.0234C22.5126 23.5393 22.7754 22.9514 22.8651 22.326L25.1847 11.3054C25.2705 10.9615 25.2655 10.6012 25.17 10.2599C25.0746 9.91855 24.8921 9.60787 24.6404 9.35834ZM11.9126 17.1631L10.7312 15.9831C10.456 15.7146 10.2632 15.3732 10.1753 14.999C10.0874 14.6248 10.1081 14.2332 10.2349 13.8704C10.3579 13.4981 10.5852 13.1689 10.8898 12.9221C11.1944 12.6752 11.5635 12.5211 11.9531 12.4779L22.8404 10.1858L12.514 20.5136V18.6202C12.515 18.3496 12.4624 18.0815 12.3592 17.8314C12.2559 17.5813 12.1042 17.3542 11.9126 17.1631ZM21.5146 22.0909C21.4619 22.4706 21.3043 22.8279 21.0597 23.123C20.8151 23.4181 20.4931 23.6391 20.1298 23.7613C19.7666 23.8835 19.3765 23.902 19.0033 23.8148C18.63 23.7276 18.2885 23.5381 18.017 23.2676L16.8349 22.0854C16.6441 21.8936 16.4171 21.7415 16.1672 21.6379C15.9172 21.5343 15.6492 21.4813 15.3786 21.482H13.4851L23.8129 11.1576L21.5146 22.0909Z" fill="#101010"/>
</svg>
