<svg width="21" height="4" viewBox="0 0 21 4" fill="none" xmlns="http://www.w3.org/2000/svg">
<path fill-rule="evenodd" clip-rule="evenodd" d="M4.12214 2C4.12214 3.10457 3.21491 4 2.0958 4C0.976681 4 0.069458 3.10457 0.069458 2C0.069458 0.895431 0.976681 0 2.0958 0C3.21491 0 4.12214 0.895431 4.12214 2ZM12.2274 2C12.2274 3.10457 11.3202 4 10.2011 4C9.08195 4 8.17473 3.10457 8.17473 2C8.17473 0.895431 9.08195 0 10.2011 0C11.3202 0 12.2274 0.895431 12.2274 2ZM18.3064 4C19.4255 4 20.3328 3.10457 20.3328 2C20.3328 0.895431 19.4255 0 18.3064 0C17.1873 0 16.2801 0.895431 16.2801 2C16.2801 3.10457 17.1873 4 18.3064 4Z" fill="#2A2A2D"/>
</svg>
