<svg width="20" height="21" viewBox="0 0 20 21" fill="none" xmlns="http://www.w3.org/2000/svg">
<path d="M5.41667 18.8333C7.0275 18.8333 8.33333 17.5275 8.33333 15.9167C8.33333 14.3058 7.0275 13 5.41667 13C3.80584 13 2.5 14.3058 2.5 15.9167C2.5 17.5275 3.80584 18.8333 5.41667 18.8333Z" stroke="#5A676F" stroke-width="1.5"/>
<path d="M15 16.3328C16.3807 16.3328 17.5 15.2135 17.5 13.8328C17.5 12.4521 16.3807 11.3328 15 11.3328C13.6193 11.3328 12.5 12.4521 12.5 13.8328C12.5 15.2135 13.6193 16.3328 15 16.3328Z" stroke="#5A676F" stroke-width="1.5"/>
<path d="M8.33301 15.916V6.33264C8.33301 5.5631 8.33301 5.17833 8.55259 4.93926C8.77209 4.70019 9.18092 4.66531 9.99851 4.59555C13.3513 4.30949 15.7572 3.21602 16.9624 2.50746C17.2087 2.36264 17.3318 2.29024 17.4158 2.33824C17.4997 2.38624 17.4997 2.52556 17.4997 2.8042V13.8326" stroke="#5A676F" stroke-width="1.5" stroke-linecap="round" stroke-linejoin="round"/>
<path d="M8.33301 8.83276C13.2219 8.83276 16.4812 6.88832 17.4997 6.33276" stroke="#5A676F" stroke-width="1.5" stroke-linecap="round" stroke-linejoin="round"/>
</svg>
