<svg width="20" height="20" viewBox="0 0 20 20" fill="none" xmlns="http://www.w3.org/2000/svg">
<path d="M15.2244 18.5568C14.15 18.7077 12.749 18.7077 10.8702 18.7077H9.12852C5.43388 18.7077 3.58657 18.7077 2.43879 17.5599C1.29102 16.4122 1.29102 14.5648 1.29102 10.8702V9.12852C1.29102 5.43388 1.29102 3.58657 2.43879 2.43879C3.58657 1.29102 5.43388 1.29102 9.12852 1.29102H10.8702C14.5648 1.29102 16.4122 1.29102 17.5599 2.43879C18.7077 3.58657 18.7077 5.43388 18.7077 9.12852V10.8702C18.7077 11.9777 18.7077 12.9192 18.6768 13.7257C18.6519 14.3719 18.6396 14.6952 18.3948 14.8159C18.1501 14.9366 17.8764 14.7429 17.3288 14.3555L16.0952 13.4827" stroke="#101010" stroke-width="1.5" stroke-linecap="round" stroke-linejoin="round"/>
</svg>
