<svg width="15" height="12" viewBox="0 0 15 12" fill="none" xmlns="http://www.w3.org/2000/svg">
<path d="M14.7632 1.625C14.2382 1.8875 13.7132 1.975 13.1007 2.0625C13.7132 1.7125 14.1507 1.1875 14.3257 0.4875C13.8007 0.8375 13.1882 1.0125 12.4882 1.1875C11.9632 0.6625 11.1757 0.3125 10.3882 0.3125C8.55068 0.3125 7.15068 2.0625 7.58818 3.8125C5.22568 3.725 3.12568 2.5875 1.63818 0.8375C0.850684 2.15 1.28818 3.8125 2.51318 4.6875C2.07568 4.6875 1.63818 4.5125 1.20068 4.3375C1.20068 5.65 2.16318 6.875 3.47568 7.225C3.03818 7.3125 2.60068 7.4 2.16318 7.3125C2.51318 8.45 3.56318 9.325 4.87568 9.325C3.82568 10.1125 2.25068 10.55 0.763184 10.375C2.07568 11.1625 3.56318 11.6875 5.13818 11.6875C10.4757 11.6875 13.4507 7.225 13.2757 3.1125C13.8882 2.7625 14.4132 2.2375 14.7632 1.625Z" fill="white"/>
</svg>
