<svg width="18" height="17" viewBox="0 0 18 17" fill="none" xmlns="http://www.w3.org/2000/svg">
<path d="M16.6405 0.858391C16.394 0.608995 16.0875 0.427365 15.7504 0.33105C15.4133 0.234735 15.057 0.22699 14.7161 0.308564L3.71953 2.62471C3.08625 2.71156 2.4898 2.97349 1.99734 3.381C1.50488 3.78852 1.13597 4.32543 0.932165 4.93128C0.72836 5.53712 0.697748 6.18784 0.843779 6.81014C0.989809 7.43244 1.30668 8.00161 1.75871 8.45356L2.93946 9.63362C3.00337 9.69751 3.05405 9.77337 3.0886 9.85687C3.12316 9.94037 3.14091 10.0299 3.14084 10.1202V12.2975C3.14235 12.6037 3.21283 12.9055 3.34702 13.1807L3.34152 13.1855L3.35939 13.2034C3.56078 13.6083 3.88969 13.9357 4.29547 14.1353L4.31334 14.1532L4.31815 14.1477C4.59331 14.2819 4.89517 14.3524 5.20131 14.3539H7.37862C7.56079 14.3537 7.73556 14.4259 7.86453 14.5546L9.0446 15.7346C9.36111 16.0547 9.73783 16.3089 10.153 16.4826C10.5682 16.6564 11.0137 16.7462 11.4638 16.747C11.8389 16.7465 12.2115 16.6853 12.5669 16.5656C13.1672 16.3684 13.7005 16.0075 14.1066 15.5234C14.5127 15.0394 14.7754 14.4515 14.8652 13.8261L17.1848 2.80546C17.2706 2.46158 17.2655 2.10129 17.1701 1.75994C17.0747 1.4186 16.8922 1.10792 16.6405 0.858391ZM3.91266 8.66318L2.73122 7.48312C2.45611 7.21463 2.26329 6.87325 2.1754 6.49903C2.08751 6.12481 2.10818 5.73329 2.235 5.37041C2.35795 4.99812 2.58524 4.66898 2.88984 4.42214C3.19444 4.17529 3.56352 4.02112 3.9532 3.97797L14.8405 1.68588L4.51403 12.0137V10.1202C4.51507 9.84966 4.46246 9.58158 4.35923 9.33149C4.25601 9.08139 4.10422 8.85424 3.91266 8.66318ZM13.5147 13.591C13.4619 13.9706 13.3044 14.328 13.0598 14.6231C12.8152 14.9181 12.4932 15.1391 12.1299 15.2613C11.7666 15.3835 11.3765 15.4021 11.0033 15.3149C10.6301 15.2277 10.2886 15.0382 10.0171 14.7676L8.83498 13.5855C8.64417 13.3936 8.41721 13.2415 8.16723 13.1379C7.91725 13.0344 7.64921 12.9814 7.37862 12.9821H5.48516L15.813 2.6577L13.5147 13.591Z" fill="#101010"/>
</svg>
