<svg width="15" height="14" viewBox="0 0 15 14" fill="none" xmlns="http://www.w3.org/2000/svg">
<path d="M3.91319 14H0.938181V4.6375H3.91319V14ZM2.42568 3.325C1.46318 3.325 0.763184 2.625 0.763184 1.6625C0.763184 0.7 1.55068 0 2.42568 0C3.38819 0 4.08819 0.7 4.08819 1.6625C4.08819 2.625 3.38819 3.325 2.42568 3.325ZM14.7632 14H11.7882V8.925C11.7882 7.4375 11.1757 7 10.3007 7C9.42568 7 8.55068 7.7 8.55068 9.0125V14H5.57568V4.6375H8.37568V5.95C8.63818 5.3375 9.68818 4.375 11.1757 4.375C12.8382 4.375 14.5882 5.3375 14.5882 8.225V14H14.7632Z" fill="white"/>
</svg>
